<svg xmlns="http://www.w3.org/2000/svg" fill="none" viewBox="0 0 33 36">
<style>
  @media (prefers-color-scheme: dark) {
    .a { fill: #e75f44 };
  }
</style>
<path class="a" fill="#002033" fill-rule="evenodd" d="M7.80877 27.0241c-.59205 1.2926-.78268 2.4915-.84276 3.1459-.03956.431-.04495.8418-.01762 1.2059l-4.07204-2.4012C1.36494 28.083.267883 26.1419.267883 24.3588V11.6404c0-1.78241 1.097057-3.7235 2.608467-4.61524L13.6591.665774C14.3875.236622 15.314 0 16.2679 0c.9543 0 1.8805.236622 2.6081.665774l2.3467 1.383356c-.9841.72713-2.0344 1.66517-3.0667 2.73989l-.1906.19841-1.1485-.67717c-.067-.03931-.2753-.1025-.549-.1025-.2733 0-.482.06319-.5492.10214L4.93629 10.6692c-.23092.1361-.54888.699-.54888.9712v12.7184c0 .2726.31796.8351.54888.9715l2.87248 1.6938ZM25.4447 9.44355c1.0229-3.73086 1.1708-7.06818.0709-7.71815-1.0996-.64999-3.8577 1.14526-6.5141 3.9116l6.4432 3.80655ZM12.1629 21.8408c-.0144-.0496-.0281-.0996-.041-.1506-.0011-.0056-.0028-.0104-.0039-.0155-.0119-.0481-.0234-.0973-.0343-.1469-.0017-.0069-.0032-.0139-.0047-.0205l-.001-.0045c-.0104-.0482-.0198-.0966-.0288-.1459-.0018-.011-.0036-.0213-.0057-.0324-.0083-.0477-.0162-.0966-.0234-.1458l-.0054-.0374c-.0072-.0486-.0133-.0974-.0194-.1474l-.0004-.0036-.0022-.02-.0021-.0175-.0035-.0342c-.004-.0384-.0079-.0769-.0112-.1154l-.0018-.0224-.0018-.0224c-.0043-.05-.0079-.1007-.0108-.1521l-.0008-.0152c-.0006-.0104-.0011-.0209-.0014-.0315-.0029-.0514-.0053-.1033-.0068-.1558-.0007-.0155-.0011-.0312-.0018-.0471-.0011-.0528-.0022-.1064-.0025-.1605v-.046c0-.0551.0003-.1105.0011-.1663l.001-.0434c.0015-.0577.0033-.1161.0054-.1746.0007-.0113.0011-.0224.0018-.0333.0025-.0629.0062-.1261.0101-.1896l.0001-.0038.0002-.002.0001-.0023c.0183-.2856.0489-.5821.0924-.8877.0006-.0058.0015-.0114.0024-.0174l.0005-.0029c.0082-.0584.0173-.1168.0266-.1759.0033-.0232.0068-.0467.0108-.0699.0078-.0494.0165-.0991.0253-.1493l.0017-.0094.0061-.0358c.0031-.0184.0062-.0368.0097-.0553.0057-.033.0122-.0664.0185-.0998l.0095-.0501.004-.0202.006-.0316c.0031-.0173.0064-.0346.0098-.0518.0057-.0289.0116-.0578.0176-.0867l.012-.0577.0091-.0443c.0047-.023.0095-.0463.0146-.0693l.0103-.0471.0132-.0591.0001-.0012.0002-.0005.0071-.0321c.0042-.018.0083-.0363.0125-.0546v-.0002c.005-.022.0099-.044.0152-.0661l.0127-.0533.02-.084c.0101-.0423.0202-.0842.031-.1264.0092-.0375.0187-.0747.0282-.112l.0059-.0232.0104-.0399c.008-.0307.016-.0616.0245-.0921.0116-.0448.0234-.0892.036-.134.0119-.0452.0248-.0909.0378-.1364l.0124-.0439c.0083-.0293.0167-.0587.0254-.0884.0136-.0474.0273-.0944.0416-.1415.0126-.0433.0256-.087.0389-.1303.0124-.0408.0252-.0818.0383-.123l.0074-.0237.0132-.0425.0001-.0005c.0088-.0283.0175-.0565.0266-.0848.0162-.0504.0331-.1014.05-.1521l.0082-.0252c.0109-.0333.0216-.0663.0328-.0998l.0184-.0539v-.0003h.0001c.0119-.0348.0238-.0697.0358-.1045l.016-.0464c.0084-.0248.0169-.0495.0258-.0745.0197-.0562.0403-.1131.0607-.1694l.0114-.0321c.0095-.0266.0189-.0531.0289-.0796.023-.0632.0468-.1267.0709-.1903l.0152-.0409.0097-.0262.0099-.0266c.0363-.0948.0731-.1899.1109-.2851l7.6139 4.498c-.0612.079-.1219.1569-.1828.2344-.0201.0257-.0402.0511-.0608.0761-.0406.0518-.0812.1029-.1219.1532l-.0373.0456-.0375.0459c-.0359.044-.0727.0889-.1094.1326-.0266.0323-.0532.0643-.0798.0963l-.0492.0578-.0555.0653c-.0277.0327-.0554.065-.0834.097-.0335.0393-.0673.0783-.1014.1168-.0285.0328-.0573.0651-.0861.0974l-.0405.0454c-.0197.0219-.0392.0438-.0591.0656-.0131.0147-.0263.0293-.0397.0439l-.0126.0141-.0358.0393c-.032.0353-.0648.0706-.0971.1059l-.0899.0958-.0964.1015-.0478.0497-.0428.0443-.0004.0004-.0023.0024c-.0309.0318-.061.0631-.092.0946l-.0231.0234c-.0234.0237-.0467.0473-.07.0703-.0309.0311-.0618.0616-.0926.092l-.0002.0002-.0316.0309c-.0211.0207-.0422.0413-.0633.0617-.0201.0195-.0402.0387-.0602.0579l-.0003.0002-.0302.0289c-.0317.0306-.0637.0611-.0957.0912l-.0473.044-.0346.0319-.0073.0068c-.0324.0305-.0651.0605-.0978.09l-.0424.0382-.0429.0386-.0325.029c-.023.0206-.0458.041-.0685.061l-.0288.0251-.027.0234-.0002.0002-.0236.0203c-.0199.017-.0394.034-.0589.0509l-.0001.0001c-.0157.0136-.0313.0272-.047.0406-.0235.0191-.0465.0381-.0691.0577-.0392.0323-.0781.0646-.1166.0969-.0089.0074-.0179.0143-.027.0214-.1585.1289-.3171.2509-.474.3663-.0065.0046-.013.0096-.0196.0145l-.0174.013c-.0282.0202-.0562.04-.0841.0597l-.0003.0002-.0441.0313c-.0173.0124-.0348.0249-.0525.0371-.0407.0282-.0812.0558-.1223.0833-.0088.0057-.0176.0117-.0265.0177-.0101.0068-.0203.0138-.0307.0202-.0395.0265-.0794.0522-.1194.0779-.0191.0125-.0388.0254-.0586.0375-.0392.025-.0784.0488-.118.0728l-.0208.0128c-.0125.0077-.0251.0154-.0378.0227-.0388.0236-.078.046-.1165.0681l-.0314.0179c-.0091.0053-.0183.0105-.0273.0155-.0389.022-.0774.0434-.1161.0643l-.0337.018-.0232.0125c-.0388.0206-.0773.0404-.1158.0598l-.0561.0284-.033.0159c-.0278.0135-.0557.027-.0832.0399l-.0263.0122-.0262.012c-.0392.0185-.0784.0357-.1177.053-.0161.0066-.0323.0135-.0481.0206-.0323.0135-.0643.0265-.096.0395l-.0238.0097c-.0147.0055-.0291.011-.0439.0168-.0407.0159-.0816.0313-.1226.046l-.0216.0073-.0144.0048c-.0432.0151-.086.0298-.128.043l-.0082.0026-.0156.0048c-.0464.0143-.0924.0279-.1381.0408.3866-.718.7082-1.4113.9201-1.9871.1427-.388.2316-.7099.2719-.9839.1468-.998-.3956-1.4355-.6359-1.5774-.2399-.1418-.8817-.4042-1.6553.2234-.2126.1723-.4413.4119-.6996.7319-.3979.4931-.8453 1.1552-1.2773 1.8893Zm1.2363 4.1298c-1.0459 1.3382-2.0787 2.0789-2.6109 1.7644-.5317-.3145-.4184-1.5976.1952-3.1911-.6107.5912-1.24408 1.4191-1.79907 2.3986-1.31039 2.3143-1.18162 4.8941-.83453 5.0991.34747.2054 2.6006-.9671 3.9109-3.2815.555-.9799.9413-1.9536 1.1384-2.7895Zm18.8687-1.6118V11.6405c0-1.78242-1.0971-3.72392-2.6085-4.61567l-2.278-1.34293c-.1269 1.23344-.3992 2.64289-.7956 4.08797l-.0712.25983 1.0848.6396c.231.136.549.6992.549.9715v12.718c0 .2723-.318.8352-.549.9715l-10.7831 6.3594c-.0669.0393-.2748.1018-.5485.1018-.2734 0-.4817-.0625-.5485-.1022l-2.8387-1.6736c-.6892 1.0089-1.4693 1.721-2.0456 2.1642-.2449.1881-.7079.5198-1.21929.769l4.04359 2.3846c.7284.4298 1.6546.6665 2.6085.6665.9543-.0004 1.8804-.2367 2.6088-.6661l10.7828-6.3591c1.5114-.8921 2.6085-2.8332 2.6085-4.616Zm-16.7599.3641c1.1297-.3034 2.3663-1.0408 3.608-2.1321-.1118 1.7191-1.174 6.8066-1.8229 6.4229-.3481-.2057-.4958-.8636-.6684-1.6329-.207-.9221-.4498-2.004-1.1167-2.6579Zm-4.5249-6.8324c-1.46285 1.0299-5.09646 4.3837-4.45944 4.7604.34788.2056.9799.0082 1.71871-.2225.86679-.2707 1.88073-.5874 2.75513-.3529-.3065-1.1357-.3069-2.5698-.0144-4.185Zm2.02 4.8778c.0718-.127.1439-.2513.2159-.3726.7821-1.3184 1.5538-2.2824 1.8859-2.361.0385-.009.071-.0063.097.009.1697.1004.0209.716-.3447 1.5701-.1404.3281-.3128.6914-.5115 1.0742-.1117.2151-.2316.4364-.3589.6612-.5894 1.0407-1.1949 1.9074-1.6325 2.3718-.0439.0465-.0862.0891-.1265.1275-.1745.1655-.3139.2509-.403.2376-.0136-.002-.0259-.0063-.0371-.0129-.2715-.1606.2727-1.6406 1.2154-3.3049Zm7.8231-13.26048-2.3322-.00189c-.1875 0-.4183.13557-.5126.30165l-1.1672 2.06202c-.0942.166-.0946.438-.0007.6041l1.1643 2.0641c.0939.1665.3245.3024.5122.3024l2.3322.0019c.1874 0 .4183-.1356.5119-.3017l1.1678-2.0619c.094-.1661.0943-.4384.0008-.6045L21.338 9.81019c-.0938-.16608-.3241-.30201-.5118-.30237Zm-7.0986 3.77008c.3098-.6753.6579-1.3591 1.0445-2.0417.9177-1.62036 2.0946-3.21686 3.3391-4.63107l6.9556 4.11007c-.5791 1.8073-1.3474 3.6448-2.2645 5.2652-.3871.6829-.7932 1.3326-1.2118 1.9432l-7.8629-4.6457Z" clip-rule="evenodd"/></svg>
